<?xml version="1.0" encoding="UTF-8"?>
<svg width="136px" height="32px" viewBox="0 0 136 32" version="1.1" xmlns="http://www.w3.org/2000/svg" xmlns:xlink="http://www.w3.org/1999/xlink">
    <!-- Generator: Sketch 41 (35326) - http://www.bohemiancoding.com/sketch -->
    <title>Bluemix-logo-primary-lightbg-reg</title>
    <desc>Created with Sketch.</desc>
    <defs></defs>
    <g id="Symbols" stroke="none" stroke-width="1" fill="none" fill-rule="evenodd">
        <g id="Navigation/Main" transform="translate(-96.000000, -16.000000)">
            <g id="Left-Nav">
                <g id="Main-Logo" transform="translate(96.000000, 16.000000)">
                    <g id="Bluemix-logo-primary-lightbg-reg">
                        <g id="Group">
                            <g transform="translate(39.725086, 9.347079)" id="Shape" fill="#1D3649">
                                <g>
                                    <polygon points="0 0.140206186 1.21512027 0.140206186 1.21512027 12.8054983 0 12.8054983"></polygon>
                                    <path d="M2.71065292,0.140206186 L8.08522337,0.140206186 C10.2350515,0.140206186 12.1512027,0.887972509 12.1512027,3.22474227 C12.1512027,4.53333333 11.2632302,5.795189 9.95463918,6.07560137 L9.95463918,6.12233677 C11.590378,6.35601375 12.6185567,7.57113402 12.6185567,9.20687285 C12.6185567,10.4219931 12.1979381,12.8054983 8.08522337,12.8054983 L2.71065292,12.8054983 L2.71065292,0.140206186 L2.71065292,0.140206186 Z M3.9257732,5.70171821 L8.08522337,5.70171821 C10.0013746,5.70171821 10.9360825,4.76701031 10.9360825,3.55189003 C10.9360825,1.9628866 10.0013746,1.16838488 8.08522337,1.16838488 L3.9257732,1.16838488 L3.9257732,5.70171821 L3.9257732,5.70171821 Z M3.9257732,11.7773196 L8.08522337,11.7773196 C9.86116838,11.7773196 11.4034364,11.2164948 11.4034364,9.16013746 C11.4034364,7.52439863 10.1883162,6.72989691 8.08522337,6.72989691 L3.9257732,6.72989691 L3.9257732,11.7773196 L3.9257732,11.7773196 Z"></path>
                                    <polygon points="13.7402062 0.140206186 15.5161512 0.140206186 19.9092784 11.2632302 24.2556701 0.140206186 26.0316151 0.140206186 26.0316151 12.8054983 24.8164948 12.8054983 24.8164948 1.86941581 24.7697595 1.86941581 20.4701031 12.8054983 19.3484536 12.8054983 15.0020619 1.86941581 14.9553265 1.86941581 14.9553265 12.8054983 13.7402062 12.8054983"></polygon>
                                </g>
                                <path d="M31.3594502,0.140206186 L37.3415808,0.140206186 C39.7718213,0.140206186 41.4075601,0.934707904 41.4075601,3.27147766 C41.4075601,4.53333333 40.8,5.37457045 39.6783505,5.93539519 C41.2206186,6.35601375 42.0151203,7.57113402 42.0151203,9.16013746 C42.0151203,11.7305842 39.8185567,12.8522337 37.5285223,12.8522337 L31.4061856,12.8522337 L31.3594502,0.140206186 L31.3594502,0.140206186 L31.3594502,0.140206186 Z M34.1635739,5.28109966 L36.9676976,5.28109966 C37.9491409,5.28109966 38.6501718,4.8604811 38.6501718,3.78556701 C38.6501718,2.61718213 37.7154639,2.33676976 36.7340206,2.33676976 L34.1168385,2.33676976 L34.1168385,5.28109966 L34.1635739,5.28109966 L34.1635739,5.28109966 Z M34.1635739,10.6556701 L37.1546392,10.6556701 C38.2295533,10.6556701 39.2109966,10.2817869 39.2109966,8.97319588 C39.2109966,7.66460481 38.4164948,7.15051546 37.2013746,7.15051546 L34.1635739,7.15051546 L34.1635739,10.6556701 L34.1635739,10.6556701 L34.1635739,10.6556701 Z"></path>
                                <polygon points="43.1835052 0.140206186 45.7072165 0.140206186 45.7072165 12.8054983 43.1835052 12.8054983"></polygon>
                                <path d="M55.8020619,12.8054983 L53.4185567,12.8054983 L53.4185567,11.5436426 L53.3718213,11.5436426 C52.7175258,12.5718213 51.6426117,13.0859107 50.5676976,13.0859107 C47.9037801,13.0859107 47.2027491,11.590378 47.2027491,9.30034364 L47.2027491,3.64536082 L49.7264605,3.64536082 L49.7264605,8.83298969 C49.7264605,10.3285223 50.147079,11.0762887 51.3621993,11.0762887 C52.7175258,11.0762887 53.3250859,10.3285223 53.3250859,8.45910653 L53.3250859,3.64536082 L55.8487973,3.64536082 L55.8020619,12.8054983 L55.8020619,12.8054983 L55.8020619,12.8054983 Z"></path>
                                <path d="M59.4941581,8.83298969 C59.5876289,10.4687285 60.3353952,11.1697595 61.737457,11.1697595 C62.7656357,11.1697595 63.5601375,10.5621993 63.747079,10.0013746 L65.9436426,10.0013746 C65.2426117,12.1979381 63.747079,13.0859107 61.6439863,13.0859107 C58.7463918,13.0859107 56.9704467,11.0762887 56.9704467,8.27216495 C56.9704467,5.51477663 58.8865979,3.41168385 61.6439863,3.41168385 C64.7752577,3.41168385 66.2707904,6.02886598 66.0838488,8.87972509 L59.4941581,8.83298969 L59.4941581,8.83298969 L59.4941581,8.83298969 Z M63.6068729,7.24398625 C63.3731959,5.98213058 62.8123711,5.28109966 61.5972509,5.28109966 C59.961512,5.28109966 59.5408935,6.54295533 59.4941581,7.24398625 L63.6068729,7.24398625 L63.6068729,7.24398625 Z"></path>
                                <path d="M67.4391753,3.64536082 L69.8226804,3.64536082 L69.8226804,4.8604811 L69.8694158,4.8604811 C70.5237113,3.9257732 71.4584192,3.36494845 72.6735395,3.36494845 C73.8419244,3.36494845 74.8701031,3.78556701 75.337457,4.90721649 C75.8982818,4.11271478 76.8329897,3.36494845 78.0948454,3.36494845 C80.057732,3.36494845 81.4597938,4.25292096 81.4597938,6.63642612 L81.4597938,12.8054983 L78.9360825,12.8054983 L78.9360825,7.61786942 C78.9360825,6.40274914 78.8426117,5.37457045 77.3938144,5.37457045 C75.9917526,5.37457045 75.7113402,6.54295533 75.7113402,7.71134021 L75.7113402,12.8054983 L73.1876289,12.8054983 L73.1876289,7.66460481 C73.1876289,6.58969072 73.2810997,5.37457045 71.6453608,5.37457045 C71.1312715,5.37457045 69.9628866,5.70171821 69.9628866,7.47766323 L69.9628866,12.8054983 L67.4391753,12.8054983 L67.4391753,3.64536082 L67.4391753,3.64536082 L67.4391753,3.64536082 Z"></path>
                                <path d="M85.4790378,2.24329897 L82.9553265,2.24329897 L82.9553265,0.186941581 L85.4790378,0.186941581 L85.4790378,2.24329897 L85.4790378,2.24329897 Z M82.9553265,3.64536082 L85.4790378,3.64536082 L85.4790378,12.8054983 L82.9553265,12.8054983 L82.9553265,3.64536082 L82.9553265,3.64536082 Z"></path>
                                <polygon points="89.6852234 7.99175258 86.6474227 3.64536082 89.4982818 3.64536082 91.1340206 6.02886598 92.7230241 3.64536082 95.5271478 3.64536082 92.4893471 7.94501718 95.8542955 12.8054983 93.0034364 12.8054983 91.0872852 9.90790378 89.171134 12.8054983 86.3670103 12.8054983"></polygon>
                            </g>
                            <g>
                                <path d="M9.58075601,15.9835052 C9.58075601,17.15189 9.81443299,18.2735395 10.2817869,19.3484536 C10.7024055,20.3766323 11.356701,21.3113402 12.1512027,22.1058419 C12.3381443,22.2927835 12.5250859,22.4329897 12.7120275,22.6199313 L12.7120275,9.39381443 C12.5250859,9.53402062 12.3381443,9.7209622 12.1512027,9.90790378 C11.356701,10.7024055 10.7491409,11.6371134 10.2817869,12.6652921 C9.81443299,13.6934708 9.58075601,14.8151203 9.58075601,15.9835052 L9.58075601,15.9835052 Z" id="Shape" fill="#1D3649"></path>
                                <path d="M24.3491409,9.86116838 C23.5546392,9.06666667 22.6199313,8.45910653 21.5917526,7.99175258 C20.5168385,7.52439863 19.395189,7.29072165 18.2268041,7.29072165 C17.1986254,7.29072165 16.2171821,7.47766323 15.2824742,7.804811 L26.7793814,14.4412371 C26.6859107,13.7869416 26.4989691,13.1793814 26.2185567,12.5718213 C25.7979381,11.590378 25.1436426,10.6556701 24.3491409,9.86116838 L24.3491409,9.86116838 Z" id="Shape" fill="#00B29F"></path>
                                <path d="M14.2075601,8.31890034 L14.2075601,8.31890034 L18.4137457,15.609622 L26.8728522,15.609622 L26.8728522,15.3292096 L14.4879725,8.17869416 C14.3945017,8.22542955 14.3010309,8.27216495 14.2075601,8.31890034 L14.2075601,8.31890034 Z" id="Shape" fill="#00B29F"></path>
                                <path d="M26.9195876,16.3573883 L26.9195876,16.3573883 L18.4604811,16.3573883 L18.4604811,16.3573883 L14.2542955,23.6948454 L14.2542955,23.6948454 C14.3477663,23.7415808 14.4412371,23.7883162 14.4879725,23.8350515 L26.8728522,16.6845361 C26.8728522,16.5443299 26.8728522,16.4508591 26.9195876,16.3573883 L26.9195876,16.3573883 Z" id="Shape" fill="#5AAAFA"></path>
                                <path d="M21.638488,23.9752577 C22.6666667,23.5546392 23.6013746,22.9003436 24.3958763,22.1058419 C25.190378,21.3113402 25.7979381,20.3766323 26.2652921,19.3484536 C26.4989691,18.7408935 26.6859107,18.1333333 26.8261168,17.4790378 L15.2824742,24.1154639 C16.2171821,24.4426117 17.2453608,24.6295533 18.2268041,24.6295533 C19.395189,24.6295533 20.5635739,24.3958763 21.638488,23.9752577 L21.638488,23.9752577 Z" id="Shape" fill="#5AAAFA"></path>
                                <path d="M17.8061856,15.9835052 L17.8061856,15.9835052 L17.8061856,15.9835052 L13.6,8.69278351 L13.6,8.69278351 C13.5532646,8.69278351 13.366323,8.83298969 13.366323,8.83298969 L13.366323,23.1340206 C13.4597938,23.180756 13.5065292,23.2274914 13.6,23.2742268 L13.6,23.2742268 L17.8061856,15.9835052 L17.8061856,15.9835052 Z" id="Shape" fill="#1D3649"></path>
                                <polygon id="Shape" fill="#90908F" points="18.4137457 16.3106529 18.4137457 16.3606529 18.4137457 16.3606529"></polygon>
                                <path d="M18.2268041,6.68316151 C22.9938144,6.68316151 26.966323,10.2817869 27.4804124,14.9085911 C27.4804124,15.0487973 27.5271478,15.1890034 27.5271478,15.2824742 L27.5271478,15.2824742 L31.7800687,7.89828179 L27.3402062,0.186941581 L18.4604811,0.186941581 L14.1608247,7.61786942 C14.3010309,7.57113402 14.4412371,7.47766323 14.5347079,7.43092784 C15.7030928,6.91683849 16.9182131,6.68316151 18.2268041,6.68316151 L18.2268041,6.68316151 Z" id="Shape" fill="#00B29F"></path>
                                <rect id="Rectangle-path" fill="#90908F" x="14.2075601" y="24.3491409" width="0.1" height="0.35"></rect>
                                <path d="M27.5271478,16.6378007 L27.5271478,16.6378007 C27.5271478,16.7780069 27.5271478,16.9182131 27.4804124,17.0584192 C26.966323,21.6852234 23.0405498,25.3305842 18.2268041,25.3305842 C16.9182131,25.3305842 15.6563574,25.0501718 14.5347079,24.5828179 C14.3945017,24.5360825 14.3010309,24.4893471 14.1608247,24.3958763 L18.4137457,31.7800687 L27.3402062,31.7800687 L31.7800687,24.0687285 L27.5271478,16.6378007 L27.5271478,16.6378007 Z" id="Shape" fill="#5AAAFA"></path>
                                <path d="M13.0391753,8.27216495 L4.43986254,8.27216495 L0,15.9835052 L4.43986254,23.6948454 L12.9924399,23.6948454 L12.9924399,23.6948454 C12.8989691,23.6013746 12.7587629,23.5546392 12.6652921,23.4611684 C10.3752577,21.7786942 8.92646048,19.0680412 8.92646048,15.9835052 C8.92646048,12.9457045 10.4219931,10.1883162 12.6652921,8.50584192 C12.8054983,8.41237113 12.8989691,8.31890034 13.0391753,8.27216495 L13.0391753,8.27216495 Z" id="Shape" fill="#1D3649"></path>
                            </g>
                        </g>
                    </g>
                </g>
            </g>
        </g>
    </g>
</svg>